<mxfile host="Electron" agent="Mozilla/5.0 (Macintosh; Intel Mac OS X 10_15_7) AppleWebKit/537.36 (KHTML, like Gecko) draw.io/25.0.2 Chrome/128.0.6613.186 Electron/32.2.5 Safari/537.36" version="25.0.2">
  <diagram name="Page-1" id="dILYRepsp4MGQZmpo2QV">
    <mxGraphModel dx="662" dy="479" grid="1" gridSize="10" guides="1" tooltips="1" connect="1" arrows="1" fold="1" page="1" pageScale="1" pageWidth="1920" pageHeight="1200" math="0" shadow="0">
      <root>
        <mxCell id="0" />
        <mxCell id="1" parent="0" />
        <mxCell id="nyjNfG7oiaXP6KOqMfzz-40" style="edgeStyle=orthogonalEdgeStyle;rounded=0;orthogonalLoop=1;jettySize=auto;html=1;exitX=0.5;exitY=0;exitDx=0;exitDy=0;" edge="1" parent="1" source="nyjNfG7oiaXP6KOqMfzz-1">
          <mxGeometry relative="1" as="geometry">
            <mxPoint x="420" y="150.375" as="targetPoint" />
          </mxGeometry>
        </mxCell>
        <mxCell id="nyjNfG7oiaXP6KOqMfzz-1" value="" style="shape=trapezoid;perimeter=trapezoidPerimeter;whiteSpace=wrap;html=1;fixedSize=1;rotation=90;" vertex="1" parent="1">
          <mxGeometry x="248.75" y="110.25" width="222.5" height="80" as="geometry" />
        </mxCell>
        <mxCell id="nyjNfG7oiaXP6KOqMfzz-6" style="edgeStyle=orthogonalEdgeStyle;rounded=0;orthogonalLoop=1;jettySize=auto;html=1;exitX=1;exitY=0.5;exitDx=0;exitDy=0;" edge="1" parent="1" source="nyjNfG7oiaXP6KOqMfzz-2">
          <mxGeometry relative="1" as="geometry">
            <mxPoint x="319.9999999999999" y="60" as="targetPoint" />
          </mxGeometry>
        </mxCell>
        <mxCell id="nyjNfG7oiaXP6KOqMfzz-2" value="render_start" style="rounded=0;whiteSpace=wrap;html=1;absoluteArcSize=0;arcSize=12;" vertex="1" parent="1">
          <mxGeometry x="120" y="40" width="120" height="40" as="geometry" />
        </mxCell>
        <mxCell id="nyjNfG7oiaXP6KOqMfzz-7" style="edgeStyle=orthogonalEdgeStyle;rounded=0;orthogonalLoop=1;jettySize=auto;html=1;exitX=1;exitY=0.5;exitDx=0;exitDy=0;" edge="1" parent="1" source="nyjNfG7oiaXP6KOqMfzz-3">
          <mxGeometry relative="1" as="geometry">
            <mxPoint x="319.9999999999999" y="120" as="targetPoint" />
          </mxGeometry>
        </mxCell>
        <mxCell id="nyjNfG7oiaXP6KOqMfzz-3" value="render_menu" style="rounded=0;whiteSpace=wrap;html=1;" vertex="1" parent="1">
          <mxGeometry x="120" y="100" width="120" height="40" as="geometry" />
        </mxCell>
        <mxCell id="nyjNfG7oiaXP6KOqMfzz-4" value="render_play" style="rounded=0;whiteSpace=wrap;html=1;" vertex="1" parent="1">
          <mxGeometry x="40" y="157.75" width="120" height="42.5" as="geometry" />
        </mxCell>
        <mxCell id="nyjNfG7oiaXP6KOqMfzz-24" style="edgeStyle=orthogonalEdgeStyle;rounded=0;orthogonalLoop=1;jettySize=auto;html=1;exitX=1;exitY=0.5;exitDx=0;exitDy=0;" edge="1" parent="1" source="nyjNfG7oiaXP6KOqMfzz-5">
          <mxGeometry relative="1" as="geometry">
            <mxPoint x="210" y="249.80952380952374" as="targetPoint" />
          </mxGeometry>
        </mxCell>
        <mxCell id="nyjNfG7oiaXP6KOqMfzz-29" style="edgeStyle=orthogonalEdgeStyle;rounded=0;orthogonalLoop=1;jettySize=auto;html=1;exitX=1;exitY=0.5;exitDx=0;exitDy=0;entryX=0;entryY=0.25;entryDx=0;entryDy=0;" edge="1" parent="1" source="nyjNfG7oiaXP6KOqMfzz-5" target="nyjNfG7oiaXP6KOqMfzz-27">
          <mxGeometry relative="1" as="geometry">
            <Array as="points">
              <mxPoint x="170" y="250" />
              <mxPoint x="170" y="288" />
            </Array>
          </mxGeometry>
        </mxCell>
        <mxCell id="nyjNfG7oiaXP6KOqMfzz-5" value="render_winlose" style="rounded=0;whiteSpace=wrap;html=1;" vertex="1" parent="1">
          <mxGeometry x="40" y="230" width="120" height="40" as="geometry" />
        </mxCell>
        <mxCell id="nyjNfG7oiaXP6KOqMfzz-8" style="edgeStyle=orthogonalEdgeStyle;rounded=0;orthogonalLoop=1;jettySize=auto;html=1;exitX=1;exitY=0.5;exitDx=0;exitDy=0;entryX=0.63;entryY=1;entryDx=0;entryDy=0;entryPerimeter=0;" edge="1" parent="1" source="nyjNfG7oiaXP6KOqMfzz-4" target="nyjNfG7oiaXP6KOqMfzz-1">
          <mxGeometry relative="1" as="geometry" />
        </mxCell>
        <mxCell id="nyjNfG7oiaXP6KOqMfzz-15" value="S_PLAY3" style="text;html=1;align=center;verticalAlign=middle;resizable=0;points=[];autosize=1;strokeColor=none;fillColor=none;" vertex="1" parent="1">
          <mxGeometry x="312" y="175" width="70" height="30" as="geometry" />
        </mxCell>
        <mxCell id="nyjNfG7oiaXP6KOqMfzz-11" value="S_START" style="text;html=1;align=center;verticalAlign=middle;resizable=0;points=[];autosize=1;strokeColor=none;fillColor=none;" vertex="1" parent="1">
          <mxGeometry x="310" y="46" width="80" height="30" as="geometry" />
        </mxCell>
        <mxCell id="nyjNfG7oiaXP6KOqMfzz-12" value="S_MENU" style="text;html=1;align=center;verticalAlign=middle;resizable=0;points=[];autosize=1;strokeColor=none;fillColor=none;" vertex="1" parent="1">
          <mxGeometry x="313" y="106" width="70" height="30" as="geometry" />
        </mxCell>
        <mxCell id="nyjNfG7oiaXP6KOqMfzz-13" value="S_PLAY2" style="text;html=1;align=center;verticalAlign=middle;resizable=0;points=[];autosize=1;strokeColor=none;fillColor=none;" vertex="1" parent="1">
          <mxGeometry x="312" y="164" width="70" height="30" as="geometry" />
        </mxCell>
        <mxCell id="nyjNfG7oiaXP6KOqMfzz-16" value="S_PLAY1" style="text;html=1;align=center;verticalAlign=middle;resizable=0;points=[];autosize=1;strokeColor=none;fillColor=none;" vertex="1" parent="1">
          <mxGeometry x="312" y="153" width="70" height="30" as="geometry" />
        </mxCell>
        <mxCell id="nyjNfG7oiaXP6KOqMfzz-14" value="S_WIN" style="text;html=1;align=center;verticalAlign=middle;resizable=0;points=[];autosize=1;strokeColor=none;fillColor=none;" vertex="1" parent="1">
          <mxGeometry x="312" y="218" width="60" height="30" as="geometry" />
        </mxCell>
        <mxCell id="nyjNfG7oiaXP6KOqMfzz-17" value="S_LOSE" style="text;html=1;align=center;verticalAlign=middle;resizable=0;points=[];autosize=1;strokeColor=none;fillColor=none;" vertex="1" parent="1">
          <mxGeometry x="311" y="229" width="70" height="30" as="geometry" />
        </mxCell>
        <mxCell id="nyjNfG7oiaXP6KOqMfzz-18" value="pixel_start" style="text;html=1;align=center;verticalAlign=middle;resizable=0;points=[];autosize=1;strokeColor=none;fillColor=none;" vertex="1" parent="1">
          <mxGeometry x="230" y="36" width="80" height="30" as="geometry" />
        </mxCell>
        <mxCell id="nyjNfG7oiaXP6KOqMfzz-19" value="pixel_menu" style="text;html=1;align=center;verticalAlign=middle;resizable=0;points=[];autosize=1;strokeColor=none;fillColor=none;" vertex="1" parent="1">
          <mxGeometry x="232" y="96" width="80" height="30" as="geometry" />
        </mxCell>
        <mxCell id="nyjNfG7oiaXP6KOqMfzz-20" value="pixel_play" style="text;html=1;align=center;verticalAlign=middle;resizable=0;points=[];autosize=1;strokeColor=none;fillColor=none;" vertex="1" parent="1">
          <mxGeometry x="149" y="155" width="80" height="30" as="geometry" />
        </mxCell>
        <mxCell id="nyjNfG7oiaXP6KOqMfzz-23" value="" style="shape=trapezoid;perimeter=trapezoidPerimeter;whiteSpace=wrap;html=1;fixedSize=1;rotation=90;size=8;" vertex="1" parent="1">
          <mxGeometry x="198" y="225" width="55" height="30" as="geometry" />
        </mxCell>
        <mxCell id="nyjNfG7oiaXP6KOqMfzz-26" style="edgeStyle=orthogonalEdgeStyle;rounded=0;orthogonalLoop=1;jettySize=auto;html=1;exitX=0.5;exitY=0;exitDx=0;exitDy=0;entryX=0.129;entryY=0.367;entryDx=0;entryDy=0;entryPerimeter=0;" edge="1" parent="1" source="nyjNfG7oiaXP6KOqMfzz-23" target="nyjNfG7oiaXP6KOqMfzz-17">
          <mxGeometry relative="1" as="geometry" />
        </mxCell>
        <mxCell id="nyjNfG7oiaXP6KOqMfzz-28" style="edgeStyle=orthogonalEdgeStyle;rounded=0;orthogonalLoop=1;jettySize=auto;html=1;exitX=1;exitY=0.5;exitDx=0;exitDy=0;entryX=1;entryY=0.5;entryDx=0;entryDy=0;" edge="1" parent="1" source="nyjNfG7oiaXP6KOqMfzz-27" target="nyjNfG7oiaXP6KOqMfzz-23">
          <mxGeometry relative="1" as="geometry" />
        </mxCell>
        <mxCell id="nyjNfG7oiaXP6KOqMfzz-27" value="==" style="rounded=1;whiteSpace=wrap;html=1;" vertex="1" parent="1">
          <mxGeometry x="190" y="280" width="30" height="30" as="geometry" />
        </mxCell>
        <mxCell id="nyjNfG7oiaXP6KOqMfzz-30" value="" style="endArrow=classic;html=1;rounded=0;" edge="1" parent="1">
          <mxGeometry width="50" height="50" relative="1" as="geometry">
            <mxPoint x="170" y="300" as="sourcePoint" />
            <mxPoint x="190" y="300" as="targetPoint" />
          </mxGeometry>
        </mxCell>
        <mxCell id="nyjNfG7oiaXP6KOqMfzz-31" value="12&#39;heee" style="text;html=1;align=center;verticalAlign=middle;resizable=0;points=[];autosize=1;strokeColor=none;fillColor=none;" vertex="1" parent="1">
          <mxGeometry x="111" y="284" width="70" height="30" as="geometry" />
        </mxCell>
        <mxCell id="nyjNfG7oiaXP6KOqMfzz-33" style="edgeStyle=orthogonalEdgeStyle;rounded=0;orthogonalLoop=1;jettySize=auto;html=1;exitX=0.5;exitY=1;exitDx=0;exitDy=0;entryX=0.25;entryY=1;entryDx=0;entryDy=0;" edge="1" parent="1" source="nyjNfG7oiaXP6KOqMfzz-32" target="nyjNfG7oiaXP6KOqMfzz-23">
          <mxGeometry relative="1" as="geometry">
            <Array as="points">
              <mxPoint x="185" y="226" />
              <mxPoint x="211" y="226" />
            </Array>
          </mxGeometry>
        </mxCell>
        <mxCell id="nyjNfG7oiaXP6KOqMfzz-32" value="tint" style="rounded=1;whiteSpace=wrap;html=1;" vertex="1" parent="1">
          <mxGeometry x="170" y="190.25" width="30" height="30" as="geometry" />
        </mxCell>
        <mxCell id="nyjNfG7oiaXP6KOqMfzz-34" value="" style="endArrow=classic;html=1;rounded=0;entryX=0.5;entryY=0;entryDx=0;entryDy=0;endSize=4;" edge="1" parent="1" target="nyjNfG7oiaXP6KOqMfzz-32">
          <mxGeometry width="50" height="50" relative="1" as="geometry">
            <mxPoint x="185" y="179" as="sourcePoint" />
            <mxPoint x="250" y="200" as="targetPoint" />
          </mxGeometry>
        </mxCell>
        <mxCell id="nyjNfG7oiaXP6KOqMfzz-35" value="" style="ellipse;whiteSpace=wrap;html=1;aspect=fixed;fontFamily=Helvetica;fontSize=11;fontColor=default;labelBackgroundColor=default;fillColor=#FFFFFF;strokeColor=none;" vertex="1" parent="1">
          <mxGeometry x="183" y="177" width="4" height="4" as="geometry" />
        </mxCell>
        <mxCell id="nyjNfG7oiaXP6KOqMfzz-36" value="" style="ellipse;whiteSpace=wrap;html=1;aspect=fixed;fontFamily=Helvetica;fontSize=11;fontColor=default;labelBackgroundColor=default;fillColor=#FFFFFF;strokeColor=none;" vertex="1" parent="1">
          <mxGeometry x="168" y="248" width="4" height="4" as="geometry" />
        </mxCell>
        <mxCell id="nyjNfG7oiaXP6KOqMfzz-37" value="1" style="text;html=1;align=center;verticalAlign=middle;resizable=0;points=[];autosize=1;strokeColor=none;fillColor=none;" vertex="1" parent="1">
          <mxGeometry x="201" y="212" width="30" height="30" as="geometry" />
        </mxCell>
        <mxCell id="nyjNfG7oiaXP6KOqMfzz-38" value="0" style="text;html=1;align=center;verticalAlign=middle;resizable=0;points=[];autosize=1;strokeColor=none;fillColor=none;" vertex="1" parent="1">
          <mxGeometry x="201" y="235" width="30" height="30" as="geometry" />
        </mxCell>
        <mxCell id="nyjNfG7oiaXP6KOqMfzz-41" value="pixel" style="text;html=1;align=center;verticalAlign=middle;resizable=0;points=[];autosize=1;strokeColor=none;fillColor=none;" vertex="1" parent="1">
          <mxGeometry x="490" y="134.25" width="50" height="30" as="geometry" />
        </mxCell>
        <mxCell id="nyjNfG7oiaXP6KOqMfzz-42" value="* This&#39;s a Abstract Diagram" style="text;html=1;align=center;verticalAlign=middle;resizable=0;points=[];autosize=1;strokeColor=none;fillColor=none;fontColor=#999999;" vertex="1" parent="1">
          <mxGeometry x="275" y="290" width="170" height="30" as="geometry" />
        </mxCell>
        <mxCell id="nyjNfG7oiaXP6KOqMfzz-43" value="&lt;p style=&quot;line-height: 0%;&quot;&gt;&lt;b&gt;DFF&lt;/b&gt;&lt;/p&gt;&lt;p&gt;&lt;/p&gt;" style="rounded=1;whiteSpace=wrap;html=1;" vertex="1" parent="1">
          <mxGeometry x="420" y="140" width="60" height="60" as="geometry" />
        </mxCell>
        <mxCell id="nyjNfG7oiaXP6KOqMfzz-44" value="" style="triangle;whiteSpace=wrap;html=1;rotation=-90;" vertex="1" parent="1">
          <mxGeometry x="446" y="188.5" width="8" height="14.5" as="geometry" />
        </mxCell>
        <mxCell id="nyjNfG7oiaXP6KOqMfzz-45" value="D" style="text;html=1;align=center;verticalAlign=middle;resizable=0;points=[];autosize=1;strokeColor=none;fillColor=none;fontColor=#FFFFFF;connectable=0;allowArrows=0;fontSize=11;pointerEvents=1;" vertex="1" parent="1">
          <mxGeometry x="413" y="136" width="30" height="30" as="geometry" />
        </mxCell>
        <mxCell id="nyjNfG7oiaXP6KOqMfzz-46" value="Q" style="text;html=1;align=center;verticalAlign=middle;resizable=0;points=[];autosize=1;strokeColor=none;fillColor=none;fontColor=#FFFFFF;connectable=0;allowArrows=0;fontSize=11;pointerEvents=1;" vertex="1" parent="1">
          <mxGeometry x="457" y="136" width="30" height="30" as="geometry" />
        </mxCell>
        <mxCell id="nyjNfG7oiaXP6KOqMfzz-48" value="" style="endArrow=classic;html=1;rounded=0;strokeColor=default;align=center;verticalAlign=middle;fontFamily=Helvetica;fontSize=11;fontColor=default;labelBackgroundColor=none;autosize=1;resizable=0;edgeStyle=orthogonalEdgeStyle;endSize=4;" edge="1" parent="1">
          <mxGeometry width="50" height="50" relative="1" as="geometry">
            <mxPoint x="450" y="220" as="sourcePoint" />
            <mxPoint x="450" y="200" as="targetPoint" />
            <Array as="points">
              <mxPoint x="450" y="210" />
              <mxPoint x="450" y="210" />
            </Array>
          </mxGeometry>
        </mxCell>
        <mxCell id="nyjNfG7oiaXP6KOqMfzz-49" style="edgeStyle=orthogonalEdgeStyle;rounded=0;orthogonalLoop=1;jettySize=auto;html=1;exitX=0.5;exitY=0;exitDx=0;exitDy=0;" edge="1" parent="1">
          <mxGeometry relative="1" as="geometry">
            <mxPoint x="500" y="150.375" as="targetPoint" />
            <mxPoint x="480" y="150" as="sourcePoint" />
          </mxGeometry>
        </mxCell>
        <mxCell id="nyjNfG7oiaXP6KOqMfzz-50" value="clk_25MHz" style="text;html=1;align=center;verticalAlign=middle;resizable=0;points=[];autosize=1;strokeColor=none;fillColor=none;" vertex="1" parent="1">
          <mxGeometry x="410" y="213" width="80" height="30" as="geometry" />
        </mxCell>
      </root>
    </mxGraphModel>
  </diagram>
</mxfile>
